<svg xmlns="http://www.w3.org/2000/svg" viewBox="0 0 96 64" role="img" aria-label="AWS">
  <path
    fill="#ff9900"
    d="M71.9 48.2c-10.6 7.8-26 12-39.2 12-18.5 0-35.2-6.8-47.8-18.2-1-.9-.1-2.1 1.1-1.4 13.6 7.9 30.4 12.7 47.8 12.7 11.7 0 24.6-2.4 36.4-7.5 1.8-.8 3.3 1.2 1.7 2.4z"
    transform="translate(12 -3)"
  />
  <path
    fill="#ff9900"
    d="M76.3 43.2c-1.3-1.7-8.8-.8-12.2-.4-1 .1-1.2-.8-.3-1.4 6-4.2 15.9-3 17-1.6 1.1 1.4-.3 11.1-5.9 15.8-.9.7-1.7.3-1.3-.6 1.3-3.1 4-10.1 2.7-11.8z"
    transform="translate(12 -3)"
  />
  <text
    x="48"
    y="34"
    fill="#ffffff"
    font-family="Arial, Helvetica, sans-serif"
    font-size="28"
    font-weight="800"
    letter-spacing="-1"
    text-anchor="middle"
  >aws</text>
</svg>
